<svg width="66" height="46" viewBox="0 0 66 46" fill="none" xmlns="http://www.w3.org/2000/svg">
<path fill-rule="evenodd" clip-rule="evenodd" d="M0 3C0 1.34315 1.34315 0 3 0H63C64.6569 0 66 1.34315 66 3V43C66 44.6569 64.6569 46 63 46H3C1.34315 46 0 44.6569 0 43V3Z" fill="#1434CB"/>
<path d="M32.6374 16.2495L29.7175 29.8999H26.1864L29.1075 16.2495H32.6374ZM47.4941 25.0631L49.3527 19.9379L50.4223 25.0631H47.4941ZM51.4341 29.8999H54.7L51.8492 16.2495H48.8348C48.157 16.2495 47.5854 16.644 47.3321 17.251L42.0332 29.8999H45.741L46.4774 27.8608H51.0078L51.4341 29.8999ZM42.2175 25.443C42.2326 21.8404 37.2357 21.6419 37.2701 20.0325C37.2808 19.5427 37.7472 19.022 38.7679 18.889C39.2739 18.8227 40.668 18.7721 42.2491 19.4999L42.8693 16.6053C42.0198 16.297 40.9266 16.0001 39.5663 16.0001C36.076 16.0001 33.6198 17.8557 33.599 20.5124C33.5765 22.4776 35.3523 23.5741 36.69 24.2271C38.0663 24.8959 38.528 25.3255 38.5229 25.9237C38.513 26.8395 37.4252 27.2437 36.4085 27.2595C34.6337 27.2868 33.6038 26.7792 32.7826 26.3975L32.1427 29.388C32.9677 29.7665 34.4906 30.0968 36.0696 30.1133C39.7795 30.1133 42.2061 28.2809 42.2175 25.443M27.592 16.2495L21.8708 29.8999H18.1381L15.3227 19.0062C15.1517 18.3352 15.0032 18.0895 14.4834 17.8069C13.6347 17.3463 12.233 16.9144 11 16.6462L11.0838 16.2495H17.0924C17.8583 16.2495 18.5467 16.7593 18.7206 17.6414L20.2075 25.5403L23.8825 16.2495H27.592Z" fill="white"/>
</svg>
